<?xml version="1.0" encoding="UTF-8"?>
<svg id="Layer_1" data-name="Layer 1" xmlns="http://www.w3.org/2000/svg" version="1.1" viewBox="0 0 841.89 595.28">
  <defs>
    <style>
      .cls-1, .cls-2 {
        fill: #c49a6c;
      }

      .cls-1, .cls-3, .cls-4 {
        stroke-width: 0px;
      }

      .cls-2 {
        stroke: #231f20;
        stroke-miterlimit: 10;
        stroke-width: .25px;
      }

      .cls-3 {
        fill: none;
      }

      .cls-4 {
        fill: #27aae1;
      }
    </style>
  </defs>
  <path class="cls-1" d="M449.29,44.6l-1.44.67-10.4,4.85-5.96,2.77-13.3,6.18-5.96,2.78-13.82,6.4-5.96,2.78-9.17,4.27v199.95l4.76-2.29v-29.35l4.41-2.17v29.42l5.96-2.85v-29.52l13.82-6.78v29.69l5.96-2.85v-29.78l13.3-6.54v20.01l3.51-1.62,2.45-1.14v-20.18l5.64-2.78v20.35l11.69-5.45,5.96-2.77,13.3-6.2,5.96-2.77,9.1-4.23V75.3l-39.8-30.7ZM392.46,235.86l-4.41,2.17v-37.5l4.41-2.17v37.5ZM392.46,192.8l-4.41,2.17v-37.5l4.41-2.17v37.5ZM392.46,149.73l-4.41,2.17v-37.12l4.41-2.17v37.12ZM392.46,107.04l-4.41,2.17v-31.74l4.41-2.05v31.62ZM412.24,226.13l-13.82,6.8v-37.48l13.82-6.81v37.5ZM412.24,183.08l-13.82,6.78v-37.5l13.82-6.78v37.5ZM412.24,140l-13.82,6.8v-37.12l13.82-6.8v37.12ZM412.24,97.31l-13.82,6.8v-31.45l13.82-6.44v31.09ZM418.2,63.45l13.3-6.2v30.58l-13.3,6.54v-30.92ZM418.2,99.94l13.3-6.54v37.12l-13.3,6.54v-37.12ZM418.2,142.63l13.3-6.54v37.5l-13.3,6.54v-37.5ZM418.2,223.21v-37.51l13.3-6.54v37.51l-13.3,6.54ZM437.45,54.5l5.64-2.63v30.26l-5.64,2.77v-30.39ZM437.45,90.48l5.64-2.78v37.12l-5.64,2.77v-37.1ZM437.45,133.15l5.64-2.77v37.5l-5.64,2.77v-37.5ZM437.45,213.73v-37.5l5.64-2.78v37.5l-5.64,2.78Z"/>
  <polygon class="cls-4" points="355.27 434.76 302.76 434.76 232.56 320.58 453.37 377.94 355.27 434.76"/>
  <polygon class="cls-4" points="574.55 317.69 503.68 434.76 366.02 434.76 574.55 317.69"/>
  <g>
    <rect class="cls-4" x="567.49" y="408.19" width="12.57" height="11.49"/>
    <rect class="cls-4" x="583.17" y="408.19" width="12.57" height="11.49"/>
    <rect class="cls-4" x="583.17" y="422.53" width="12.57" height="11.49"/>
    <rect class="cls-4" x="567.49" y="422.53" width="12.57" height="11.49"/>
  </g>
  <g>
    <rect class="cls-4" x="204.31" y="406.76" width="12.57" height="11.49"/>
    <rect class="cls-4" x="219.99" y="406.76" width="12.57" height="11.49"/>
    <rect class="cls-4" x="219.99" y="421.1" width="12.57" height="11.49"/>
    <rect class="cls-4" x="204.31" y="421.1" width="12.57" height="11.49"/>
  </g>
  <path class="cls-4" d="M383.18,141.43l-1.43.66-10.4,4.84-5.96,2.77-13.3,6.19-5.96,2.78-13.82,6.43-5.96,2.77-9.18,4.27v162.68l15.13,3.93v-3.41l13.82-6.8v13.8l5.96,1.55v-18.29l13.3-6.54v28.28l5.96,1.55v-32.76l5.64-2.78v34.24l11.87-8.88v-29.01l28.29,12.25,1.19-.59,4.66-5.07v-144.17l-39.81-30.7ZM326.35,332.69l-4.41,2.17v-37.49l4.41-2.17v37.49ZM326.35,289.62l-4.41,2.17v-37.51l4.41-2.17v37.51ZM326.35,246.56l-4.41,2.17v-37.12l4.41-2.18v37.14ZM326.35,203.86l-4.41,2.17v-31.73l4.41-2.05v31.61ZM346.13,322.96l-13.82,6.79v-37.49l13.82-6.8v37.51ZM346.13,279.89l-13.82,6.8v-37.51l13.82-6.79v37.49ZM346.13,236.83l-13.82,6.79v-37.11l13.82-6.81v37.14ZM346.13,194.13l-13.82,6.8v-31.46l13.82-6.42v31.08ZM365.39,313.49l-13.3,6.54v-37.49l13.3-6.54v37.49ZM365.39,270.42l-13.3,6.54v-37.49l13.3-6.55v37.51ZM365.39,227.34l-13.3,6.55v-37.11l13.3-6.55v37.11ZM365.39,184.65l-13.3,6.55v-30.93l13.3-6.19v30.57ZM376.98,307.78l-5.64,2.77v-37.49l5.64-2.78v37.51ZM376.98,264.71l-5.64,2.78v-37.49l5.64-2.78v37.49ZM376.98,221.64l-5.64,2.78v-37.11l5.64-2.78v37.11ZM376.98,178.96l-5.64,2.78v-30.41l5.64-2.63v30.26Z"/>
  <path class="cls-4" d="M525.61,242.49l-35.66-28.72-.86.43-.56.27-1.31.61-9.1,4.44-5.96,2.89-13.3,6.45-5.96,2.9-9.82,4.78-2.93,1.42-1.06.51-1.64.8-4.31,2.08-1.64.8-7.53,3.67v68.85l4.76-3.4v-24.23l4.41-2.27v23.38l5.96-4.23v-22.2l13.82-7.1v19.48l5.96-4.23v-18.3l13.3-6.83v38.61l5.96,12.17v-9.25l5.62-2.9v23.65l12.31,25.12,33.71-20.39v-85.91l-4.17-3.35ZM433.14,278.96l-4.41,2.27v-33.14l4.41-2.13v33.01ZM452.92,268.8l-13.82,7.1v-32.85l2.86-1.4,10.96-5.29v32.44ZM472.18,258.91l-13.3,6.83v-32.29l13.3-6.47v31.93ZM483.76,297.54l-5.62,2.89v-38.74l5.62-2.9v38.76ZM483.76,252.95l-5.62,2.9v-31.76l5.62-2.75v31.61Z"/>
  <polyline class="cls-3" points="435 388.58 430.59 391.12 425.83 393.89 424.18 394.84"/>
  <polygon class="cls-4" points="419.52 328.18 409.9 344.99 409.9 334.72 409.9 334.72 409.9 323.7 392.42 315.14 392.42 346.6 383.34 352.78 428.97 364.63 461.43 299.67 419.52 328.18"/>
  <polygon class="cls-2" points="493.35 354.85 488.24 357.72 464.87 312.05 436.92 366.69 432.02 365.42 462.09 306.62 465.4 300.17 468.17 305.61 493.35 354.85"/>
  <g>
    <rect class="cls-4" x="453.32" y="343.16" width="9.77" height="8.93"/>
    <rect class="cls-4" x="465.52" y="343.16" width="9.77" height="8.93"/>
    <rect class="cls-4" x="465.52" y="354.31" width="9.77" height="8.93"/>
    <rect class="cls-4" x="453.32" y="354.31" width="9.77" height="8.93"/>
  </g>
  <line class="cls-3" x1="435" y1="310.02" x2="430.59" y2="313.02"/>
  <line class="cls-3" x1="425.83" y1="316.27" x2="424.18" y2="317.39"/>
  <polygon class="cls-1" points="640.65 435 698.8 435 646.54 423.2 586.56 326.41 581.61 318.43 575.75 327.9 509.98 434.02 519.86 434.02 580.69 335.87 633.75 421.49 640.65 435"/>
  <polygon class="cls-1" points="229.76 328.64 223.9 319.17 218.95 327.16 159.82 422.57 105.84 434.76 152.27 434.76 164 434.76 224.81 336.61 285.64 434.76 295.52 434.76 229.76 328.64"/>
  <path class="cls-1" d="M249.04,445.75h18.45v81.65h-18.45v-81.65ZM258.33,512.58h23.5c6.06,0,10.75-1.22,14.08-3.65,3.32-2.43,4.98-5.88,4.98-10.33v-24.03c0-4.45-1.66-7.9-4.98-10.33-3.32-2.43-8.01-3.65-14.08-3.65h-23.5v-14.82h23.1c8.17,0,15.14,1.14,20.91,3.42,5.77,2.28,10.16,5.62,13.17,10,3.01,4.38,4.51,9.66,4.51,15.83v23.13c0,5.88-1.45,11.01-4.34,15.39-2.9,4.38-7.24,7.79-13.03,10.22-5.79,2.43-12.89,3.65-21.28,3.65h-23.03v-14.82Z"/>
  <path class="cls-4" d="M363.53,445.75h11.72l37.45,81.65h-19.87l-23.44-55.76-23.44,55.76h-19.87l37.45-81.65ZM344.07,499.49h51.52v14.82h-51.52v-14.82Z"/>
  <path class="cls-1" d="M408.66,445.75h18.99l20.81,54.47,20.81-54.47h18.99l-32.6,81.65h-14.41l-32.6-81.65Z"/>
  <path class="cls-4" d="M536.89,495.9v31.5h-18.45v-31.5l-28.83-50.14h19.33l18.72,35.15,18.72-35.15h19.33l-28.83,50.14Z"/>
</svg>